<svg viewBox="0 0 661.5279 158.2432" xmlns="http://www.w3.org/2000/svg" data-sanitized-data-name="Layer 1" data-name="Layer 1" id="Layer_1">
  <g>
    <circle style="fill: #ccb0d4" r="77.6456" cy="78.9866" cx="79.1217" id="fullLogo"></circle>
    <path style="fill: #e78c3c" d="M136.2812,71.48l-.6984-.7344a4.478,4.478,0,0,1-.08-6.0862l.95-1.0527a5.9432,5.9432,0,0,0-.4414-8.4038l-3.8068-3.4182a1.0268,1.0268,0,0,1-.2281-1.2319,8.2609,8.2609,0,0,0-2.9436-10.7465,3.7369,3.7369,0,0,1-1.5131-4.4442l.3147-.8588a4.8688,4.8688,0,0,0-3.6792-6.4612l-1.7111-.3191a3.99,3.99,0,0,1-3.2584-3.9223,5.3586,5.3586,0,0,0-6.3837-5.2594l-1.0554.2055a5.2468,5.2468,0,0,1-5.1678-1.9578A6.8871,6.8871,0,0,0,97.18,15.3257L79.1218,27.89,61.0638,15.3257a6.887,6.887,0,0,0-9.3992,1.4631,5.2467,5.2467,0,0,1-5.1678,1.9578l-1.0556-.2055a5.3583,5.3583,0,0,0-6.3834,5.2594,3.99,3.99,0,0,1-3.2585,3.9223l-1.711.3191a4.8687,4.8687,0,0,0-3.6793,6.4612l.3148.8588a3.7368,3.7368,0,0,1-1.5132,4.4442,8.2612,8.2612,0,0,0-2.9438,10.7465,1.0265,1.0265,0,0,1-.2281,1.2319l-3.8066,3.4182a5.9431,5.9431,0,0,0-.4413,8.4038l.95,1.0527a4.4781,4.4781,0,0,1-.08,6.0862l-.6986.7344a6.063,6.063,0,0,0,.5754,8.8882,3.359,3.359,0,0,1,.2027,5.041l-.227.2164a6.7193,6.7193,0,0,0,.5675,10.2108,3.01,3.01,0,0,1,.4952,4.3163l-1.1779,1.091a6.0417,6.0417,0,0,0,.0776,8.9352l10.2044.0654a1.1807,1.1807,0,0,1,.9863,1.8183l-.67,1.0444a4.2833,4.2833,0,0,0,3.6611,6.5956l19.6953-.2567h45.538l19.6953.2567a4.2833,4.2833,0,0,0,3.661-6.5956l-.67-1.0444a1.1809,1.1809,0,0,1,.9866-1.8183l10.2043-.0654a6.0418,6.0418,0,0,0,.0776-8.9352l-1.1778-1.091a3.01,3.01,0,0,1,.4949-4.3163,6.7191,6.7191,0,0,0,.5675-10.2108l-.2268-.2164a3.3591,3.3591,0,0,1,.2025-5.041A6.0627,6.0627,0,0,0,136.2812,71.48Z" data-sanitized-data-name="fullLogo" data-name="fullLogo" id="fullLogo-2"></path>
    <path style="fill: #c37355" d="M110.1582,78.1547l.5818-18.6208a35.11,35.11,0,0,0-.5347-8.5561c-4.136-.1835-6.7187-3.8486-10.665-5.2333-2.8-.9824-5.6631-1.0706-8.373-2.444a27.053,27.053,0,0,1-3.1041-1.9145c-.1994-.0652-.3986-.1276-.5989-.1974q-.4221-.1534-.8481-.2955a4.2171,4.2171,0,0,1-.5776-.155l-.1492-.0088a20.3184,20.3184,0,0,1-7.9464.6886c-3.7947-.4285-5.9395-.6942-9.4872.821C65.6409,43.4411,62.58,43.76,59.79,44.9713c-3.8675,1.6795-7.1184,3.73-10.805,5.0091a22.6613,22.6613,0,0,0-1.4814,9.5535l.5818,18.6208S40.742,79.9,41.3439,85.9794s7.9849,6.8616,7.9849,6.8616A36.6516,36.6516,0,0,0,56.82,107.1938v10.7623a9.4118,9.4118,0,0,1-8.3355,9.35l-1.4827.1708s7.9015,17.1093,32.12,17.1093,32.12-17.1093,32.12-17.1093l-1.4831-.1708a9.4121,9.4121,0,0,1-8.3355-9.35V107.1936a36.65,36.65,0,0,0,7.4915-14.3526s7.3831-.7824,7.985-6.8616S110.1582,78.1547,110.1582,78.1547Z" data-sanitized-data-name="fullLogo" data-name="fullLogo" id="fullLogo-3"></path>
    <circle style="fill: #e8442a" r="8.7034" cy="93.8508" cx="57.6802" data-sanitized-data-name="fullLogo" data-name="fullLogo" id="fullLogo-4"></circle>
    <circle style="fill: #e8442a" r="8.7034" cy="93.8508" cx="100.5632" data-sanitized-data-name="fullLogo" data-name="fullLogo" id="fullLogo-5"></circle>
    <path style="fill: #e8442a" d="M111.892,127.4772l25.671,2.6394s-19.6385,26.5156-58.5708,26.5156-58.3117-26.5156-58.3117-26.5156l24.5837-2.6394s12.5069,17.1093,33.629,17.1093S111.892,127.4772,111.892,127.4772Z" data-sanitized-data-name="fullLogo" data-name="fullLogo" id="fullLogo-6"></path>
    <path style="fill: #550e25" d="M79.1019,103.4932a15.498,15.498,0,0,1-11.1131-4.7917l1.8086-2.02a12.9153,12.9153,0,0,0,18.639-.03l1.8142,2.0142A15.5018,15.5018,0,0,1,79.1019,103.4932Z" data-sanitized-data-name="fullLogo" data-name="fullLogo" id="fullLogo-7"></path>
    <path style="fill: #550e25" d="M70.7231,75.18,68.66,73.1291a9.2119,9.2119,0,0,1-13.0472.0189l-2.0567,2.057A12.121,12.121,0,0,0,70.7231,75.18Z" data-sanitized-data-name="fullLogo" data-name="fullLogo" id="fullLogo-8"></path>
    <path style="fill: #550e25" d="M104.6844,75.0837l-2.0625-2.0512a9.2138,9.2138,0,0,1-13.0478.0189l-2.0566,2.057a12.1214,12.1214,0,0,0,17.1669-.0247Z" data-sanitized-data-name="fullLogo" data-name="fullLogo" id="fullLogo-9"></path>
    <path style="fill: #550e25" d="M79.1117,0a79.1216,79.1216,0,1,0,48.4444,141.6326c.1-.08.221-.161.3216-.2414A79.0914,79.0914,0,0,0,79.1117,0Zm-48.35,137.9869a79.3352,79.3352,0,0,1-7.3211-6.8795l8.8893-.9908Zm28.2808,14.6456a74.7094,74.7094,0,0,1-14.8476-5.7849l-.6795-10.2817a39.4778,39.4778,0,0,0,15.5521,16.0726Zm55.0517-5.8181-.0118.0065a75.2671,75.2671,0,0,1-15.2629,5.9122c-.0255.0069-.052.0113-.0776.0182a39.74,39.74,0,0,0,16.02-16.33Zm.4625-16.8994C108.5457,145.6662,95.62,154.7,79.0935,154.7c-16.1623,0-28.9808-8.76-35.1674-24.0342-.2351-.58-.4251-1.1786-.6333-1.7711l1.3487-.15a42.8959,42.8959,0,0,0,68.7544-.0226l1.5126.1686C114.7887,129.2319,114.6847,129.58,114.5565,129.915ZM25.526,97.6825a5.2819,5.2819,0,0,0-1.3394-3.2886c-.1571-.1822-.3171-.3622-.4772-.5426-.23-.2595-.461-.5185-.6814-.7851a4.1976,4.1976,0,0,1-.843-3.7013,5.7251,5.7251,0,0,1,1.6241-2.5877l.2671-.3022a5.5905,5.5905,0,0,0,.0058-7.3493l-.3947-.4432c-.2052-.2292-.4114-.4578-.6073-.6936a4.224,4.224,0,0,1-.0059-5.514c.2057-.25.4212-.4906.6368-.7321l.4031-.4564a5.5439,5.5439,0,0,0,.1723-7.0609c-.2244-.2756-.461-.5408-.6977-.806-.1856-.2074-.3716-.4152-.55-.6292a4.1733,4.1733,0,0,1-.8577-3.6934,5.5673,5.5673,0,0,1,1.6132-2.5985l2.0184-2.0295a5.6951,5.6951,0,0,0,1.6737-4.0239l.0991-4.3719a5.0554,5.0554,0,0,1,1.9329-3.7369l-.01-.0156,1.3541-1.2563a5.7137,5.7137,0,0,0,1.6737-4.0564v-4.34a2.8309,2.8309,0,0,1,1.7861-2.64l2.7219-1.09a5.7872,5.7872,0,0,0,3.4072-3.8145l.7733-2.81a2.8653,2.8653,0,0,1,2.956-2.0815l3.1653.2386c2.5534.2,4.1068-1.3249,5.36-2.5442a12.3083,12.3083,0,0,1,1.4355-1.2652,5.4189,5.4189,0,0,1,6.0914-.4281l8.5019,5.9015-3.0327-1.181A5.7421,5.7421,0,0,0,59.13,22.081l-2.4033,2.4159a2.8767,2.8767,0,0,1-2.23.8305l-3.1652-.2386a5.7759,5.7759,0,0,0-5.98,4.21l-.7733,2.81a2.8616,2.8616,0,0,1-1.6845,1.8854l-2.7218,1.09a5.7265,5.7265,0,0,0-3.613,5.3412v4.34a2.8251,2.8251,0,0,1-.8273,2.0053L33.6754,48.84a8.2366,8.2366,0,0,0-2.3723,4.0717,7.0643,7.0643,0,0,0,1.48,6.0921c.2.24.4075.4735.6162.7065s.4163.4649.6137.707A2.6051,2.6051,0,0,1,33.9,63.7315l-.3761.4249c-.2411.2707-.4821.5421-.7134.8219a7.1508,7.1508,0,0,0,.0147,9.2249c.2225.268.4552.5274.6874.7864l.3613.4059a2.6733,2.6733,0,0,1-.0019,3.5138l-.2563.29a8.22,8.22,0,0,0-2.3095,3.9855,7.0912,7.0912,0,0,0,1.4616,6.09c.2416.2922.4929.5758.7448.8595.1517.17.3034.3413.4527.5146a2.36,2.36,0,0,1,.6348,1.449v.01a2.8805,2.8805,0,0,1-.9662,1.8628,7.7415,7.7415,0,0,0-2.3748,4.244c-.0388.2694-.0648.5412-.0908.813l-.04.4631a6.9607,6.9607,0,0,0,1.7807,4.7427l.8278.9484c1.0084,1.1416,1.1488,2.1412.4433,3.2288H24.08a1.2374,1.2374,0,0,1-.9166-.392l-.0712-.0834a4.0707,4.0707,0,0,1-1.0355-2.7146l.0266-.2722c.0216-.225.0427-.45.0741-.6724a5.0014,5.0014,0,0,1,1.603-2.6535,5.7324,5.7324,0,0,0,1.7679-3.8147l.0005-.071Zm8.6364,15.9916a5.6435,5.6435,0,0,1,1.6516-2.6379,5.3582,5.3582,0,0,0,.1021-7.7816l-.8115-.93a4.0756,4.0756,0,0,1-1.0669-2.75l.0265-.2714c.0211-.2249.0427-.45.0742-.6734a5.0011,5.0011,0,0,1,1.6029-2.6535,5.7291,5.7291,0,0,0,1.7675-3.815l.001-.0711-.0025-.054a5.2828,5.2828,0,0,0-1.3388-3.2874c-.1586-.1838-.32-.3652-.4807-.5465-.2292-.2581-.4585-.5161-.679-.7822a4.1993,4.1993,0,0,1-.8429-3.7005A5.7311,5.7311,0,0,1,35.79,81.131l.2671-.302a5.5918,5.5918,0,0,0,.0054-7.35l-.3849-.4323c-.2086-.2325-.4173-.4646-.6166-.7047a4.2236,4.2236,0,0,1-.0064-5.5134c.2072-.2505.4242-.4934.64-.7363l.4-.4522a5.5427,5.5427,0,0,0,.1724-7.0609c-.2249-.2765-.4625-.5426-.7-.8083-.185-.2073-.37-.4143-.5474-.6269a4.1729,4.1729,0,0,1-.8577-3.6933,5.5608,5.5608,0,0,1,1.6133-2.5992l2.0183-2.0294a5.7139,5.7139,0,0,0,1.6737-4.0565v-4.34a2.8315,2.8315,0,0,1,1.7861-2.64l2.7219-1.09a5.7874,5.7874,0,0,0,3.4073-3.8145l.7732-2.81A2.8625,2.8625,0,0,1,51.1123,27.99l3.1657.2386a5.7439,5.7439,0,0,0,4.5114-1.68l2.4028-2.4159a2.84,2.84,0,0,1,3.28-.5421l9.2772,3.6174-.0064.0009h-.02A33.3875,33.3875,0,0,0,49.2285,45.1663a28.5523,28.5523,0,0,0-2.0311,4.9269,33.2134,33.2134,0,0,0-1.5883,10.8995L45.9307,77.06l.001.04a8.5453,8.5453,0,0,0-1.1479,16.409v5.3838a5.5551,5.5551,0,1,0,6.9736,5.3606c0-.1575-.0336-.3057-.0466-.46a38.97,38.97,0,0,0,3.4907,4.98l.0069.0077v8.8209c0,.2016-.04.3929-.055.5909H36.8548a2.3591,2.3591,0,0,1-1.8352-.8258A4.1721,4.1721,0,0,1,34.1624,113.6741Zm92.9278-72.61,1.98,1.99.3314.3542c.1517.1607.2282.2576.3225.3694a5.15,5.15,0,0,1,.9309,2.6846l.0977,4.3061a5.7164,5.7164,0,0,0,1.6746,4.0565l1.98,1.99a5.6454,5.6454,0,0,1,1.6516,2.6389,4.1719,4.1719,0,0,1-.8577,3.6924c-.1778.2141-.3638.4215-.5494.6293-.2372.2648-.4738.53-.6987.8059a5.546,5.546,0,0,0,.1729,7.0619l.4.4518c.2165.2429.4335.4858.64.7358a4.2234,4.2234,0,0,1-.0054,5.514c-.1974.2372-.404.4669-.61.697l-.3918.44a5.59,5.59,0,0,0,.0054,7.3493l.267.3021a5.72,5.72,0,0,1,1.6241,2.5881,4.1978,4.1978,0,0,1-.8424,3.701c-.22.2656-.45.5237-.6786.7817-.161.1814-.322.3627-.48.546a5.3121,5.3121,0,0,0-1.3359,3.2458l-.0084.0839.0025.0838a5.735,5.735,0,0,0,1.7689,3.8146,4.9949,4.9949,0,0,1,1.6015,2.6531c.0324.2235.0535.4488.0752.6737l.0265.2713a4.1081,4.1081,0,0,1-1.0409,2.7208l-.0343.0388a1.2555,1.2555,0,0,1-.9481.43H124.32c-.9873-1.2294-.9338-2.32.1832-3.5844l.8277-.9485a6.9624,6.9624,0,0,0,1.7807-4.7431l-.04-.4631c-.0261-.2718-.0521-.5436-.0914-.8135a7.7374,7.7374,0,0,0-2.3737-4.2435,2.8608,2.8608,0,0,1-.9677-1.8112,2.383,2.383,0,0,1,.6363-1.511c.1492-.1728.3009-.3438.4521-.5141.2519-.2837.5033-.5673.7443-.859a7.09,7.09,0,0,0,1.4626-6.0907,8.2285,8.2285,0,0,0-2.3095-3.9851l-.2568-.29a2.6734,2.6734,0,0,1-.0024-3.5134l.3618-.4063c.2327-.259.465-.5184.6884-.7864a7.1514,7.1514,0,0,0,.0137-9.2249c-.2308-.28-.4718-.5512-.7134-.8219l-.3755-.4244a2.6044,2.6044,0,0,1-.1125-3.3154c.1969-.2416.4051-.474.6132-.7065s.4159-.4664.6162-.707a7.0619,7.0619,0,0,0,1.4792-6.0911,8.3,8.3,0,0,0-2.41-4.1115l-2.0178-2.0294a2.8251,2.8251,0,0,1-.8273-2.0053v-4.34a5.7268,5.7268,0,0,0-3.6139-5.3412l-2.72-1.09a2.8586,2.8586,0,0,1-1.685-1.8854l-.7733-2.81a5.7631,5.7631,0,0,0-5.98-4.21l-3.1647.2386a2.8439,2.8439,0,0,1-2.2309-.8305L99.11,22.081a5.7413,5.7413,0,0,0-6.5715-1.1278l-4.6823,1.8235,9.9071-6.5649a5.4129,5.4129,0,0,1,6.0476.449,12.2626,12.2626,0,0,1,1.436,1.2652c1.2525,1.2188,2.8044,2.7374,5.36,2.5442l3.1653-.2386a2.8548,2.8548,0,0,1,2.956,2.0815l.7733,2.81a5.7879,5.7879,0,0,0,3.4077,3.8145l2.7209,1.09a2.8306,2.8306,0,0,1,1.7866,2.64v4.34A5.7137,5.7137,0,0,0,127.09,41.0643ZM93.65,23.6421l.1183-.052a2.84,2.84,0,0,1,3.2791.5421l2.4033,2.4159a5.7429,5.7429,0,0,0,4.5114,1.68l3.1657-.2386a2.8547,2.8547,0,0,1,2.9561,2.0815l.7732,2.81a5.7859,5.7859,0,0,0,3.4078,3.8145l2.72,1.09a2.8305,2.8305,0,0,1,1.7866,2.64v4.34a5.7144,5.7144,0,0,0,1.6742,4.0565l1.98,1.99a5.6457,5.6457,0,0,1,1.6516,2.639,4.1708,4.1708,0,0,1-.8577,3.6923c-.1773.2131-.3623.42-.5474.6274-.2382.2657-.4758.5318-.7.8078a5.5441,5.5441,0,0,0,.1723,7.0619l.4.4517c.2165.2429.4335.4858.64.7363a4.2225,4.2225,0,0,1-.0054,5.5134c-.2.24-.4084.4722-.6166.7047l-.3854.4328a5.5911,5.5911,0,0,0,.0054,7.3493l.2671.302a5.7249,5.7249,0,0,1,1.6246,2.5877,4.2014,4.2014,0,0,1-.843,3.7015c-.2205.2656-.45.5236-.6785.7817-.1611.1813-.3221.3627-.48.546a5.3137,5.3137,0,0,0-1.3354,3.2374l-.0088.0918.0029.0838a5.7277,5.7277,0,0,0,1.7685,3.815,4.996,4.996,0,0,1,1.6015,2.653c.0324.2235.0535.449.0751.6739l.0265.2714a4.0807,4.0807,0,0,1-1.0674,2.7506l-.8115.93a5.3577,5.3577,0,0,0,.1026,7.7811,5.6465,5.6465,0,0,1,1.6516,2.6384,4.1778,4.1778,0,0,1-.868,3.7048,2.3513,2.3513,0,0,1-1.8249.8134H103.0862c-.0147-.198-.055-.3893-.055-.5909V108.781a38.7484,38.7484,0,0,0,7.7331-14.728v0a8.5875,8.5875,0,0,0,6.3388-14.1054,8.5113,8.5113,0,0,0-4.7913-2.8467l.001-.04.3216-16.0677a32.9944,32.9944,0,0,0-1.5686-10.8794,31.2484,31.2484,0,0,0-2.0512-4.947A33.3859,33.3859,0,0,0,84.5211,27.2084h-.02l-.0054-.0007ZM42.058,85.9726a5.6675,5.6675,0,0,1,3.9331-5.9095l.1007,4.478a38.8823,38.8823,0,0,0,.6814,6.5226A5.6872,5.6872,0,0,1,42.058,85.9726Zm4.1339,15.5334a2.7484,2.7484,0,1,1-2.7474,2.7474A2.7507,2.7507,0,0,1,46.1919,101.506ZM47.6,98.8926v-4.477a38.5155,38.5155,0,0,0,2.0836,5.5409A5.5183,5.5183,0,0,0,47.6,98.8926Zm1.5082-14.4319-.4026-18.593c7.2692-7.05,16.3642-3.9749,16.7137-3.8525a10.8937,10.8937,0,0,1,6.73,6.4075c2.6566,7.3118-2.7057,17.236-2.76,17.3355l-.5229.954.7664.7713a14.466,14.466,0,0,0,9.5658,3.5751c.0162,0,.0334-.0023.05-.0025s.0339.0025.0511.0025a14.4655,14.4655,0,0,0,9.5663-3.5751l.7659-.7722-.5224-.9531c-.0545-.1-5.4162-10.0237-2.76-17.3355a10.8921,10.8921,0,0,1,6.7282-6.4067c.3785-.1468,9.2064-3.4167,16.44,3.5782l-.3815,18.8665a35.7793,35.7793,0,0,1-26.3031,33.9251,13.9447,13.9447,0,0,1-7.4209,0A35.7554,35.7554,0,0,1,49.1082,84.4607ZM111.47,91.0618a38.913,38.913,0,0,0,.6815-6.5207l.1006-4.4766a5.671,5.671,0,0,1-.7821,10.9973Zm-4.748-43.7639a30.026,30.026,0,0,1,2.8957,13.6344l-.02.905-.0005.0145c-8.1538-6.0939-17.1619-2.7091-17.5783-2.5461-4.2212,1.6492-7.05,4.3856-8.4081,8.133-2.5574,7.055.9352,15.57,2.38,18.5963a11.9791,11.9791,0,0,1-13.5107.0556c1.43-2.9813,4.9783-11.5573,2.4067-18.6519-1.3585-3.7474-4.1874-6.4838-8.447-8.1476-.4256-.1525-9.636-3.31-17.8139,2.8291l-.0005-.0215-.02-1.1664a30.29,30.29,0,0,1,2.8956-13.6344,23.82,23.82,0,0,1,2.8152-4.786,31.2235,31.2235,0,0,1,2.9963-3.5594,30.4956,30.4956,0,0,1,43.5982,0,31.2751,31.2751,0,0,1,2.9963,3.5594A44.5481,44.5481,0,0,1,106.7223,47.2979Zm-48.6045,70.304V111.891a38.7868,38.7868,0,0,0,16.4894,9.3906,16.6613,16.6613,0,0,0,9.0292,0,38.79,38.79,0,0,0,16.4859-9.3874v5.7077a10.7824,10.7824,0,0,0,9.4937,10.6989l.3991.0446a40.009,40.009,0,0,1-61.985.0216l.594-.0662A10.7828,10.7828,0,0,0,58.1178,117.6019Zm69.1767,20.5316-1.442-8.0233,8.95.9975A77.572,77.572,0,0,1,127.2945,138.1335ZM109.95,125.411a7.8318,7.8318,0,0,1-6.0618-4.3089h17.4963a5.26,5.26,0,0,0,4.072-1.8751,7.0615,7.0615,0,0,0,1.48-6.0917,5.9686,5.9686,0,0,0-.4953-1.46h7.7193a4.1638,4.1638,0,0,0,3.1176-1.4007l.0039-.0047.0221-.0247.0079-.0094a6.9663,6.9663,0,0,0,1.7807-4.7432l-.04-.4631c-.026-.2717-.052-.5436-.0913-.8134a7.7378,7.7378,0,0,0-2.3738-4.2436,2.8922,2.8922,0,0,1-.9657-1.8457,2.3832,2.3832,0,0,1,.6343-1.4764c.1493-.1729.301-.3438.4522-.5142.2519-.2837.5032-.5673.7443-.859a7.0871,7.0871,0,0,0,1.4621-6.09,8.2254,8.2254,0,0,0-2.309-3.9855l-.2568-.29a2.6735,2.6735,0,0,1-.0019-3.5139l.3682-.4134c.23-.2566.46-.5138.6814-.7789a7.152,7.152,0,0,0,.0138-9.2249c-.2308-.28-.4718-.5511-.7134-.822l-.3756-.4241a2.6055,2.6055,0,0,1-.1129-3.3156c.1964-.241.4041-.4726.6117-.7045.2087-.2335.4174-.4674.6182-.7089a7.0633,7.0633,0,0,0,1.4792-6.0912,8.3,8.3,0,0,0-2.41-4.1114L134.49,52.7737a2.85,2.85,0,0,1-.8283-2.0385l-.0982-4.306a7.8892,7.8892,0,0,0-1.2534-4.0449l.0162-.0107c-.0226-.0344-.0555-.0608-.079-.0939a6.9761,6.9761,0,0,0-1.661-1.8126l-1.4336-1.454a2.827,2.827,0,0,1-.8267-2.0052v-4.34a5.7267,5.7267,0,0,0-3.614-5.3412l-2.7209-1.09a2.8591,2.8591,0,0,1-1.6845-1.8855l-.7732-2.81a5.759,5.759,0,0,0-5.98-4.21l-3.1657.2386c-1.1867.0871-1.9167-.5654-3.1117-1.7288a14.6834,14.6834,0,0,0-1.7925-1.56,8.3247,8.3247,0,0,0-9.1328-.6156l-.1822.099.0054.01L78.5854,25.43,61.9164,13.8463,61.61,13.67a8.3341,8.3341,0,0,0-9.1417.6109,14.7228,14.7228,0,0,0-1.792,1.56c-1.195,1.1634-1.926,1.814-3.1117,1.7288l-3.1657-.2386a5.773,5.773,0,0,0-5.98,4.21l-.7732,2.81a2.86,2.86,0,0,1-1.684,1.8855L33.24,27.327a5.7265,5.7265,0,0,0-3.613,5.3412v4.34a2.7982,2.7982,0,0,1-.785,1.9641l-1.41,1.3077a6.3626,6.3626,0,0,0-.4743.44l-.133.1236.0054.0059A8.0567,8.0567,0,0,0,24.6766,46.04l-.0987,4.3718a2.8277,2.8277,0,0,1-.8277,2.0058L21.694,54.4869a8.237,8.237,0,0,0-2.3723,4.0707,7.0654,7.0654,0,0,0,1.4793,6.0917c.2008.2414.4094.4758.6191.71.2071.2315.4148.4631.6107.7035a2.6052,2.6052,0,0,1-.1129,3.3156l-.3785.4285c-.2406.27-.4807.54-.71.8187a7.1507,7.1507,0,0,0,.0153,9.2248c.2194.2638.4487.52.678.7751l.37.4162a2.6737,2.6737,0,0,1-.002,3.514l-.2563.29a8.218,8.218,0,0,0-2.309,3.9849,7.0908,7.0908,0,0,0,1.4616,6.0913c.2426.2926.4949.5772.7473.8617.1512.17.3014.34.45.5113a2.3561,2.3561,0,0,1,.6348,1.449l0,.0157a2.886,2.886,0,0,1-.9667,1.8571A7.7382,7.7382,0,0,0,19.278,103.86c-.0393.2691-.0653.54-.0913.8117l-.04.4645A6.9749,6.9749,0,0,0,20.936,109.89a4.1643,4.1643,0,0,0,3.1436,1.43H31.987a6.0748,6.0748,0,0,0-.6839,1.8154,7.074,7.074,0,0,0,1.492,6.1073,5.2521,5.2521,0,0,0,4.06,1.86H54.3516A7.8318,7.8318,0,0,1,48.29,125.411l-27.2124,3.0325-.0025-.0029a76.1975,76.1975,0,1,1,116.1055.0049Z" data-sanitized-data-name="fullLogo" data-name="fullLogo" id="fullLogo-10"></path>
    <path style="fill: #550e25" d="M109.5246,53.8628A9.1211,9.1211,0,0,0,106.5372,52.4a12.8815,12.8815,0,0,1-3.1451-1.45,14.3482,14.3482,0,0,1-2.6477-2.6173,8.5134,8.5134,0,0,0-2.1965-2.0967,8.78,8.78,0,0,0-3.3088-.6472,13.301,13.301,0,0,1-3.3119-.5309,14.5866,14.5866,0,0,1-3.1749-1.6765,8.4069,8.4069,0,0,0-2.796-1.38,8.5564,8.5564,0,0,0-3.3325.4315,13.5056,13.5056,0,0,1-3.3.5525h-.0154a14.5505,14.5505,0,0,1-3.5241-.5649,8.519,8.519,0,0,0-3.1038-.4114,8.7785,8.7785,0,0,0-3.0184,1.4325A13.1561,13.1561,0,0,1,66.637,44.993a14.7373,14.7373,0,0,1-3.7362.5087,8.6094,8.6094,0,0,0-2.9545.4454A9.4732,9.4732,0,0,0,57.209,48.26a11.8993,11.8993,0,0,1-2.3654,2.1384,9.6036,9.6036,0,0,1-4.0853,1.5329,3.2387,3.2387,0,0,0-2.1214,1.0257l-.0383-3.2659c1.6642-1.47.7149-.7416,1.6891-.8884a6.4987,6.4987,0,0,0,2.8979-1.0988A9.7,9.7,0,0,0,54.8878,46.11a12.04,12.04,0,0,1,3.7362-3.0375,10.9158,10.9158,0,0,1,4.13-.7317,11.9615,11.9615,0,0,0,2.9421-.3686,10.7449,10.7449,0,0,0,2.2842-1.21,11.38,11.38,0,0,1,4.2006-1.8768,10.8542,10.8542,0,0,1,4.3643.4639,12.0237,12.0237,0,0,0,2.7641.4722h.0092a11.0775,11.0775,0,0,0,2.5251-.4547A11.2344,11.2344,0,0,1,86.47,38.88,10.7333,10.7333,0,0,1,90.46,40.7177a11.9815,11.9815,0,0,0,2.4829,1.3434,10.8325,10.8325,0,0,0,2.53.3723,11.4141,11.4141,0,0,1,4.5291.9933,10.8279,10.8279,0,0,1,3.1585,2.8644,11.6854,11.6854,0,0,0,2.0452,2.0668,10.5035,10.5035,0,0,0,2.3912,1.0613c1.3141.4675,1.588-.0783,2.8052.9973Z" data-sanitized-data-name="fullLogo" data-name="fullLogo" id="fullLogo-11"></path>
    <path style="fill: #550e25" d="M230.8805,76.3754a1.1226,1.1226,0,0,0-.1787,1.863c3.1056,2.3064,6.39,5.8554,6.39,11.09,0,12.4224-11.8019,23.69-27.5929,23.69A9.3155,9.3155,0,0,1,200.89,108.05c-.4417-.8868.2664-1.7754,1.42-1.509a23.504,23.504,0,0,0,5.5907.6222c14.3748,0,23.3342-10.293,23.3342-19.52,0-5.7661-4.7006-8.9611-9.3168-10.2913a1.2621,1.2621,0,0,1-.0877-2.3958c12.4224-4.9686,23.9579-14.8182,23.9579-22.0039,0-4.5252-4.0834-8.0742-14.5534-8.0742-17.8345,0-39.9243,14.8165-39.9243,25.11a5.237,5.237,0,0,0,5.5,5.589c1.1532,0,1.42,1.42.5328,2.1294a7.8228,7.8228,0,0,1-4.97,1.332c-4.1678,0-7.4521-3.1056-7.4521-8.3406,0-12.8658,22.0055-29.5453,46.6716-29.5453,13.5722,0,18.8966,5.6784,18.8966,11.8879C250.4886,61.38,242.0586,70.6076,230.8805,76.3754Zm-38.771,35.49a1.1458,1.1458,0,0,1-1.8647-.2664,7.6154,7.6154,0,0,1-1.332-4.7022,8.5873,8.5873,0,0,1,1.5107-4.9686l37.085-52.7918a.9606.9606,0,0,1,1.686,0,8.09,8.09,0,0,1,1.5983,4.9686,7.6241,7.6241,0,0,1-1.5106,4.7023Z" data-sanitized-data-name="fullLogo" data-name="fullLogo" id="fullLogo-12"></path>
    <path style="fill: #550e25" d="M262.83,68.4782c.4451-.62,0-.7975,0-2.2171,0-3.0179,2.2188-5.6784,4.7916-5.6784a3.8693,3.8693,0,0,1,2.9269,1.42,1.061,1.061,0,0,1,0,1.2409l-3.372,4.9686a.9557.9557,0,0,0,.091,1.2426c2.5729,2.8392,4.967,6.2989,4.967,9.8479,0,8.1635-9.3134,16.6812-9.3134,22.7136,0,1.2426.354,2.2188,1.4162,2.2188,3.463,0,10.7364-8.3406,17.0352-17.568,1.5107.177,2.0435,1.686,1.7771,3.1949-10.5577,15.7927-16.4148,20.2285-21.8269,20.2285-3.9047,0-6.2988-3.2826-6.2988-7.0086,0-10.293,12.51-17.3017,12.51-25.02a8.8792,8.8792,0,0,0-2.04-5.235,1.089,1.089,0,0,0-1.686,0l-25.1112,35.7565a1.0382,1.0382,0,0,1-1.6859.0876,4.2608,4.2608,0,0,1,0-4.9686Z" data-sanitized-data-name="fullLogo" data-name="fullLogo" id="fullLogo-13"></path>
    <path style="fill: #550e25" d="M287.2364,110.09c-6.1235,0-10.47-2.9268-10.47-10.1142,0-11.9773,15.88-31.3207,29.2772-31.3207,3.7261,0,7.2734,2.3082,7.2734,7.8079,0,7.1873-4.8793,17.9237-11.9773,25.2881a.6466.6466,0,0,0,.7115,1.0639c6.3865-2.4835,11.1781-7.1874,17.8344-16.1484,1.5073.177,2.04,1.686,1.7737,3.1949C317.7545,95.54,306.6641,110.09,287.2364,110.09Zm-3.2843-9.3151c0,1.6843.62,3.549,2.7515,3.549,7.184,0,21.9128-17.745,21.9128-28.1256,0-2.3958-.7991-4.3482-3.1932-4.3482C298.4128,71.85,283.9521,90.128,283.9521,100.775Z" data-sanitized-data-name="fullLogo" data-name="fullLogo" id="fullLogo-14"></path>
    <path style="fill: #550e25" d="M356.4446,69.4544c1.2409,0,2.3941,3.0162,2.3941,5.058a8.6105,8.6105,0,0,1-1.5949,4.79l-6.4776,9.3167c-2.8392,3.9925-4.7039,8.4283-4.7039,12.156,0,1.6843.62,3.549,2.6639,3.549,2.5728,0,8.784-2.8392,16.8565-14.4624l6.1235-8.784a4.96,4.96,0,0,0,.62-1.1532C374.1,74.6,377.56,68.6552,380.9319,68.6552A3.2447,3.2447,0,0,1,383.95,71.14c0,.354-.0911.5328-.6238,1.0638-4.08,3.9048-7.9849,12.6888-7.9849,17.5681,0,2.0417.3574,4.3481,1.8647,4.3481,1.9524,0,3.9924-3.1056,7.01-7.4537,1.5072.177,2.04,1.686,1.7736,3.1949-4.7039,6.8317-7.3644,7.5415-9.4044,7.5415-2.3975,0-4.2588-1.8631-5.4121-5.5891a1.1,1.1,0,0,0-2.0434-.3557c-8.693,12.1559-15.0829,18.6318-23.3341,18.6318-3.9924,0-6.6529-2.9268-7.098-7.6308-.0877-.9745-1.0622-1.5072-1.9524-.531-4.3465,4.79-10.1126,8.1618-14.9041,8.1618-4.3465,0-7.01-3.1056-7.01-8.4282,0-5.5014,2.6639-11.8,6.39-17.0353L331.6,69.8085a.9845.9845,0,0,1,.8868-.4435c1.2443,0,2.31,3.1056,2.31,5.1474a8.4036,8.4036,0,0,1-1.423,4.79L327.52,87.5552c-2.9269,4.2588-5.5031,9.1381-5.5031,13.22,0,1.6843.6238,3.549,2.7515,3.549,2.4852,0,8.8717-2.8392,16.7689-14.4624l13.93-19.8744A1.03,1.03,0,0,1,356.4446,69.4544Z" data-sanitized-data-name="fullLogo" data-name="fullLogo" id="fullLogo-15"></path>
    <path style="fill: #550e25" d="M417.056,68.6552c2.9269,0,5.5873,1.509,5.5873,5.8572,0,9.8478-13.93,20.5842-13.93,27.5035,0,1.2426.3541,2.1294,1.42,2.1294,4.35,0,11.89-8.2512,18.1008-17.4786,1.5073.177,2.04,1.686,1.7737,3.1949-10.9995,15.882-18.3639,20.2285-23.3342,20.2285a6.1453,6.1453,0,0,1-6.3865-6.3882c0-10.4683,18.1885-22.8013,18.1885-29.9887a1.8429,1.8429,0,0,0-1.9524-2.04c-5.7695,0-19.6991,9.4044-39.7489,37.62a1.09,1.09,0,0,1-1.686,0,7.7706,7.7706,0,0,1-1.686-4.881,7.8725,7.8725,0,0,1,1.595-4.6129l21.031-29.99a.9925.9925,0,0,1,1.6826,0,6.4758,6.4758,0,0,1,1.332,3.9047A7.4378,7.4378,0,0,1,397.89,77.618c-.5327.62.3541,1.42.8869.8868C406.0532,71.94,411.907,68.6552,417.056,68.6552Z" data-sanitized-data-name="fullLogo" data-name="fullLogo" id="fullLogo-16"></path>
    <path style="fill: #550e25" d="M493.7213,62.5334c-1.777,0-2.4851-.2664-2.4851-1.0639,0-.6221.2664-.9761,1.2409-1.3319,6.9226-2.5728,14.82-8.2512,14.82-12.2436,0-1.686-1.5106-2.9269-4.6162-2.9269-8.4266,0-21.7358,7.0086-21.7358,17.3893,0,6.921,5.2333,13.6632,5.2333,22.8907,0,13.3092-14.9952,27.7716-30.0781,27.7716-9.6708,0-14.2837-7.0087-14.2837-13.4862,0-11.89,10.6454-20.7613,20.5826-20.7613,4.6162,0,6.744,2.6605,6.744,5.6784a11.56,11.56,0,0,1-4.8793,9.0487,1.0975,1.0975,0,0,1-1.686-1.33,15.69,15.69,0,0,0,2.1311-7.1874c0-2.04-.89-3.0163-2.5728-3.0163-5.5031,0-12.5134,7.8972-12.5134,16.4148,0,4.5252,2.0434,9.9373,8.6963,9.9373,11.2692,0,20.6736-13.3092,20.6736-23.9563,0-6.7422-4.0835-15.705-4.0835-20.9383,0-11.89,14.4625-22.0055,26.1767-22.0055,7.9849,0,9.3168,4.1711,9.3168,6.39C510.4025,55.5247,500.1079,62.5334,493.7213,62.5334Z" data-sanitized-data-name="fullLogo" data-name="fullLogo" id="fullLogo-17"></path>
    <path style="fill: #550e25" d="M525.3168,88.619c-3.372,4.9687-5.8571,10.1143-5.8571,13.3969,0,1.332.354,2.3081,1.5072,2.3081,4.35,0,11.6232-8.43,18.0131-17.6573,1.5073.177,2.04,1.686,1.7737,3.1949-11.0028,15.7927-18.1008,20.2285-23.1554,20.2285-4.1711,0-5.5907-3.1932-5.5907-6.4759,0-.9761-.9779-1.3319-1.9524-.4434-3.6384,3.46-8.6963,6.9193-13.6633,6.9193-4.1711,0-7.01-3.1056-7.01-8.4282,0-5.5014,2.6638-11.8,6.39-17.0353L506.15,69.8085a.9847.9847,0,0,1,.8869-.4435c1.3319,0,2.4851,3.1056,2.4851,5.1474a7.9838,7.9838,0,0,1-1.5949,4.79L502.07,87.5552c-2.8392,4.2588-5.5,9.1381-5.5,13.22,0,1.6843.7082,3.549,2.7482,3.549,2.4852,0,8.8717-2.8392,16.7689-14.4624L530.196,69.8085a.9847.9847,0,0,1,.8869-.4435c1.3319,0,2.4851,3.1056,2.4851,5.1474a7.9657,7.9657,0,0,1-1.5983,4.79Z" data-sanitized-data-name="fullLogo" data-name="fullLogo" id="fullLogo-18"></path>
    <path style="fill: #550e25" d="M557.8867,106.5411c-.3574.4434.1754,1.1532.7958.9762,6.6563-2.04,15.44-7.0087,24.9325-20.8506,1.5106.177,2.04,1.686,1.7736,3.1949-10.9994,16.1484-21.1153,20.7613-30.7862,22.8907-1.1532.2664-1.42.4434-1.686.7992-6.5652,8.6946-14.7288,16.3254-19.7867,16.3254-2.5729,0-4.2589-1.5089-4.2589-3.6384,0-5.0579,6.4776-10.0265,16.1485-13.93a2.003,2.003,0,0,0,1.0655-.7992l3.0179-4.3464c.2664-.3558-.2664-.7992-.6238-.5328a11.9457,11.9457,0,0,1-7.3644,2.6622c-3.635,0-6.6529-3.195-6.6529-8.43,0-15.882,18.9-32.2075,31.3189-32.2075a9.7318,9.7318,0,0,1,6.0359,1.8647q1.1937,1.0623,1.5949,1.0639a1.1679,1.1679,0,0,0,.8869-.5328l.8868-1.2425a1.1,1.1,0,0,1,.89-.4435c1.3286,0,2.3941,3.195,2.3941,5.1474a8.5147,8.5147,0,0,1-1.5073,4.79Zm-18.9,12.51c-3.726,2.1294-6.2989,4.6145-6.2989,6.6546a.8748.8748,0,0,0,.7992.8868c.9745,0,2.9269-2.2171,4.7-4.2588.62-.7081,1.1532-1.5073,1.686-2.1277A.7511.7511,0,0,0,538.9868,119.0512Zm32.1181-43.3856a.9523.9523,0,0,0,0-.9762A5.2371,5.2371,0,0,0,566.138,71.85c-9.4955,0-24.4907,16.059-24.4907,28.1257,0,1.686.6238,3.6383,2.8392,3.6383,2.3975,0,9.1414-2.6621,17.1263-14.196Z" data-sanitized-data-name="fullLogo" data-name="fullLogo" id="fullLogo-19"></path>
    <path style="fill: #550e25" d="M630.0235,89.8616c-11.1781,15.6157-17.9221,20.2285-23.5094,20.2285-3.4631,0-5.2367-2.8392-5.2367-6.4759a1.0908,1.0908,0,0,0-1.8613-.7991c-3.73,3.726-8.7841,7.275-13.7544,7.275-4.2588,0-6.9193-3.1932-6.9193-8.4282,0-16.2378,18.8089-33.0067,31.2313-33.0067a9.7281,9.7281,0,0,1,6.0325,1.8647q1.1988,1.0623,1.5983,1.0639a1.1791,1.1791,0,0,0,.8868-.5328l.8869-1.2425a1.0981,1.0981,0,0,1,.8868-.4435c1.2409,0,2.3064,3.195,2.3064,5.1474a9.1576,9.1576,0,0,1-1.42,4.79l-6.6529,9.3167c-3.372,4.7023-5.6784,9.6709-5.6784,13.3969,0,1.332.3541,2.2188,1.3286,2.2188,4.35,0,11.7142-8.3406,18.1008-17.568C629.7571,86.8437,630.29,88.3527,630.0235,89.8616Zm-24.6626,0,9.9372-14.196a.9682.9682,0,0,0,0-.9762,5.2421,5.2421,0,0,0-4.97-2.8392c-9.4921,0-24.4,16.5025-24.4,28.9248,0,1.6843.62,3.549,2.6639,3.549C590.9861,104.324,597.3726,101.4848,605.3609,89.8616Z" data-sanitized-data-name="fullLogo" data-name="fullLogo" id="fullLogo-20"></path>
    <path style="fill: #550e25" d="M641.92,72.8264,630.03,89.8616c-1.3286-.1787-1.9524-1.5983-1.7737-3.1949l12.6888-18.1885c.4417-.62,0-.7975,0-2.2171,0-3.0179,2.2187-5.6784,4.7916-5.6784a4.0313,4.0313,0,0,1,2.9268,1.42,1.061,1.061,0,0,1,0,1.2409l-3.46,4.9686a1.0723,1.0723,0,0,0,.0877,1.2426c2.66,2.8392,5.0579,6.2989,5.0579,9.8479,0,8.1635-9.3168,16.6812-9.3168,22.7136,0,1.2426.3541,2.2188,1.42,2.2188,3.372,0,10.6454-8.3406,17.0353-17.568,1.5073.177,2.04,1.686,1.7737,3.1949-10.47,15.7927-16.4149,20.2285-21.8269,20.2285-3.9014,0-6.3865-3.2826-6.3865-7.0086,0-10.293,12.5977-17.3017,12.5977-25.02a8.8574,8.8574,0,0,0-2.04-5.235A1.089,1.089,0,0,0,641.92,72.8264Z" data-sanitized-data-name="fullLogo" data-name="fullLogo" id="fullLogo-21"></path>
    <path style="fill: #550e25" d="M561.7484,119.6391h4.7177a7.39,7.39,0,0,1,3.0632.5587,4.157,4.157,0,0,1,1.8228,1.4777,3.5883,3.5883,0,0,1,.5954,1.991,3.1747,3.1747,0,0,1-.6558,2.0256,5.0214,5.0214,0,0,1-1.6567,1.3568,4.6827,4.6827,0,0,1,2.17,1.359,3.3269,3.3269,0,0,1,.8089,2.2629,3.9222,3.9222,0,0,1-1.5359,3.2422,7.1359,7.1359,0,0,1-4.4933,1.2145h-4.8364Zm5.2419,6.8856a1.5623,1.5623,0,0,0,1.2037-.63,3.1258,3.1258,0,0,0,.5372-2.0386,2.7674,2.7674,0,0,0-.645-2.0255,2.314,2.314,0,0,0-1.715-.6429h-1.3353v5.3368Zm-.4767,7.054a2.7108,2.7108,0,0,0,2.0256-.7507,3.1267,3.1267,0,0,0,.74-2.2758q0-2.5951-2.12-2.5973h-2.1227v5.6238Z" data-sanitized-data-name="fullLogo" data-name="fullLogo" id="fullLogo-22"></path>
    <path style="fill: #550e25" d="M575.8325,135.1275l5.147-15.4884h3.6456l4.8126,15.4884H585.96l-1.3353-4.3359h-5.3864l-1.4043,4.3359Zm3.8829-5.8373h4.4567l-2.12-7.2933h-.0474Z" data-sanitized-data-name="fullLogo" data-name="fullLogo" id="fullLogo-23"></path>
    <path style="fill: #550e25" d="M593.6075,135.1275V119.6391h3.29v7.1725l1.4065-1.0246,4.5516-6.1479h2.2866l-4.694,6.053,5.79,9.4354h-4.17l-4.1461-6.9568-1.0246.714v6.2428Z" data-sanitized-data-name="fullLogo" data-name="fullLogo" id="fullLogo-24"></path>
    <path style="fill: #550e25" d="M610.2651,135.1275V119.6391h9.2931v1.7149h-6.0056v5.1h5.2915v1.6674h-5.2915v5.2916h6.34v1.7149Z" data-sanitized-data-name="fullLogo" data-name="fullLogo" id="fullLogo-25"></path>
    <path style="fill: #550e25" d="M624.6577,119.6391h4.7673a6.0745,6.0745,0,0,1,4.0986,1.2749,4.4847,4.4847,0,0,1,1.4777,3.5852,4.6046,4.6046,0,0,1-.74,2.61,5.1239,5.1239,0,0,1-1.9307,1.7279l3.5766,6.29h-3.79l-2.9078-5.6237h-1.2619v5.6237h-3.29Zm4.5041,8.2921a2.6347,2.6347,0,0,0,1.37-.2977,1.69,1.69,0,0,0,.7033-1.0138,7.0909,7.0909,0,0,0,.2157-1.976,4.94,4.94,0,0,0-.5371-2.6576,2.0312,2.0312,0,0,0-1.8228-.7982h-1.1433v6.7433Z" data-sanitized-data-name="fullLogo" data-name="fullLogo" id="fullLogo-26"></path>
    <path style="fill: #550e25" d="M643.1489,135.1275v-5.9818l-4.8127-9.5066h3.6931l3.4083,7.03h.0475l3.3371-7.03h2.2866l-4.6465,9.1507v6.3377Z" data-sanitized-data-name="fullLogo" data-name="fullLogo" id="fullLogo-27"></path>
  </g>
</svg>
